<?xml version="1.0" standalone="no"?><!DOCTYPE svg PUBLIC "-//W3C//DTD SVG 1.1//EN" "http://www.w3.org/Graphics/SVG/1.1/DTD/svg11.dtd"><svg class="icon" width="200px" height="200.00px" viewBox="0 0 1024 1024" version="1.1" xmlns="http://www.w3.org/2000/svg"><path d="M320 272c0-44.2-35.8-80-80-80H144c-44.2 0-80 35.8-80 80v96c0 44.2 35.8 80 80 80h96c44.2 0 80-35.8 80-80v-96z m0 384c0-44.2-35.8-80-80-80H144c-44.2 0-80 35.8-80 80v96c0 44.2 35.8 80 80 80h96c44.2 0 80-35.8 80-80v-96z m64-384v96c0 44.2 35.8 80 80 80h96c44.2 0 80-35.8 80-80v-96c0-44.2-35.8-80-80-80h-96c-44.2 0-80 35.8-80 80z m256 384c0-44.2-35.8-80-80-80h-96c-44.2 0-80 35.8-80 80v96c0 44.2 35.8 80 80 80h96c44.2 0 80-35.8 80-80v-96z m64-384v96c0 44.2 35.8 80 80 80h96c44.2 0 80-35.8 80-80v-96c0-44.2-35.8-80-80-80h-96c-44.2 0-80 35.8-80 80z m256 384c0-44.2-35.8-80-80-80h-96c-44.2 0-80 35.8-80 80v96c0 44.2 35.8 80 80 80h96c44.2 0 80-35.8 80-80v-96z" /></svg>