<?xml version="1.0" standalone="no"?><!DOCTYPE svg PUBLIC "-//W3C//DTD SVG 1.1//EN" "http://www.w3.org/Graphics/SVG/1.1/DTD/svg11.dtd"><svg class="icon" width="200px" height="200.00px" viewBox="0 0 1024 1024" version="1.1" xmlns="http://www.w3.org/2000/svg"><path d="M456.6 938.2L95.2 600.8c-8.4-7.8-16.4-16.2-23.8-24.8h174c45.2 0 86-27.2 103.4-69l21-50.4 98.6 219c7.6 17 24.2 28 42.8 28.2s35.6-10 44-26.6l84.8-169.8 3.4 6.8c19 38 57.8 62 100.2 62h209c-7.4 8.6-15.4 17-23.8 24.8L567.4 938.2c-15 14-34.8 21.8-55.4 21.8s-40.4-7.8-55.4-21.8zM1007.4 480h-264c-6 0-11.6-3.4-14.4-8.8l-46.4-92.6c-8.2-16.2-24.8-26.6-43-26.6s-34.8 10.2-43 26.6l-82.8 165.6-102-227.8c-7.8-17.4-25.4-28.6-44.4-28.2s-36.2 11.8-43.6 29.6l-63.6 152.6c-2.4 6-8.4 9.8-14.8 9.8H32c-5.2 0-10 0.8-14.6 2.2-11.4-32-17.4-66-17.4-100.6v-11.6c0-139.8 101-259 238.8-282 91.2-15.2 184 14.6 249.2 79.8l24 24 24-24c65.2-65.2 158-95 249.2-79.8 137.8 23 238.8 142.2 238.8 282v11.6c0 33.8-5.6 67-16.6 98.2z" /></svg>