<?xml version="1.0" standalone="no"?><!DOCTYPE svg PUBLIC "-//W3C//DTD SVG 1.1//EN" "http://www.w3.org/Graphics/SVG/1.1/DTD/svg11.dtd"><svg class="icon" width="200px" height="200.00px" viewBox="0 0 1024 1024" version="1.1" xmlns="http://www.w3.org/2000/svg"><path d="M80 96c-26.6 0-48 21.4-48 48v96c0 26.6 21.4 48 48 48h96c26.6 0 48-21.4 48-48V144c0-26.6-21.4-48-48-48H80z m304 32c-35.4 0-64 28.6-64 64s28.6 64 64 64h576c35.4 0 64-28.6 64-64s-28.6-64-64-64H384z m0 320c-35.4 0-64 28.6-64 64s28.6 64 64 64h576c35.4 0 64-28.6 64-64s-28.6-64-64-64H384z m0 320c-35.4 0-64 28.6-64 64s28.6 64 64 64h576c35.4 0 64-28.6 64-64s-28.6-64-64-64H384zM32 464v96c0 26.6 21.4 48 48 48h96c26.6 0 48-21.4 48-48v-96c0-26.6-21.4-48-48-48H80c-26.6 0-48 21.4-48 48z m48 272c-26.6 0-48 21.4-48 48v96c0 26.6 21.4 48 48 48h96c26.6 0 48-21.4 48-48v-96c0-26.6-21.4-48-48-48H80z" /></svg>