<?xml version="1.0" encoding="UTF-8"?>
<svg width="24px" height="24px" viewBox="0 0 24 24" version="1.1" xmlns="http://www.w3.org/2000/svg" xmlns:xlink="http://www.w3.org/1999/xlink">
    <g id="页面-2" stroke="none" stroke-width="1" fill="none" fill-rule="evenodd">
        <g id="高校首页" transform="translate(-1489.000000, -40.000000)">
            <g id="编组-52" transform="translate(1489.000000, 33.000000)">
                <g id="编组-50" transform="translate(0.000000, 5.000000)">
                    <g id="编组-54" transform="translate(0.000000, 2.000000)">
                        <circle id="椭圆形" fill-opacity="0.498197115" fill="#003431" cx="11.5" cy="12.5" r="11.5"></circle>
                        <path d="M12,22.2857143 C15.6747318,22.2857143 19.0703241,20.3252683 20.90769,17.1428572 C22.7450559,13.9604461 22.7450559,10.0395539 20.90769,6.85714281 C19.0703241,3.67473171 15.6747318,1.71428571 12,1.71428571 C6.31935686,1.71428571 1.71428571,6.31935686 1.71428571,12 C1.71428571,17.6806431 6.31935686,22.2857143 12,22.2857143 Z M12,24 C5.372583,24 0,18.627417 0,12 C0,5.372583 5.372583,0 12,0 C18.627417,0 24,5.372583 24,12 C24,18.627417 18.627417,24 12,24 Z M12.8571429,11.5405714 L17.6177143,14.7154286 C17.9958931,14.9835786 18.0923282,15.5038212 17.8353841,15.8897012 C17.57844,16.2755812 17.0612492,16.3872315 16.668,16.1417143 L11.5251429,12.7131429 C11.2864711,12.5543183 11.1430053,12.286687 11.1428571,12 L11.1428571,4.28571429 C11.1428571,3.81232736 11.5266131,3.42857142 12,3.42857142 C12.4733869,3.42857142 12.8571429,3.81232736 12.8571429,4.28571429 L12.8571429,11.5405714 Z" id="形状" fill="#34FFF4" fill-rule="nonzero"></path>
                    </g>
                </g>
            </g>
        </g>
    </g>
</svg>