<?xml version="1.0" encoding="UTF-8"?>
<svg width="143px" height="33px" viewBox="0 0 143 33" version="1.1" xmlns="http://www.w3.org/2000/svg" xmlns:xlink="http://www.w3.org/1999/xlink">
    <!-- Generator: Sketch 57 (83077) - https://sketch.com -->
    <title></title>
    <desc>Created with Sketch.</desc>
    <defs>
        <polygon id="path-1" points="0.424938462 0.472788462 13.4805 0.472788462 13.4805 1.42026923 0.424938462 1.42026923"></polygon>
        <polygon id="path-3" points="0 32.8690788 141.672808 32.8690788 141.672808 -0.000190384615 0 -0.000190384615"></polygon>
    </defs>
    <g id="页面-1" stroke="none" stroke-width="1" fill="none" fill-rule="evenodd">
        <g id="登录" transform="translate(-32.000000, -94.000000)">
            <g id="编组" transform="translate(32.500000, 94.000000)">
                <path d="M69.1024442,26.1800423 L69.1024442,27.8313115 L71.6218673,27.8313115 L71.6218673,26.1800423 C71.6218673,25.9439654 71.675175,25.7675423 71.7811558,25.6488692 C71.8871365,25.5314654 72.0267519,25.4724462 72.2000019,25.4724462 C72.3751558,25.4724462 72.5173096,25.5308308 72.6264635,25.6469654 C72.7349827,25.7643692 72.7895596,25.9414269 72.7895596,26.1800423 L72.7895596,30.7200808 C72.7895596,30.9586962 72.7343481,31.1370231 72.6245596,31.2544269 C72.5141365,31.3731 72.3726173,31.4314846 72.2000019,31.4314846 C72.0242135,31.4314846 71.8839635,31.3724654 71.7792519,31.2525231 C71.6745404,31.13385 71.6218673,30.9555231 71.6218673,30.7200808 L71.6218673,28.7826 L69.1024442,28.7826 L69.1024442,30.7200808 C69.1024442,30.9586962 69.0472327,31.1370231 68.9374442,31.2544269 C68.8270212,31.3731 68.6855019,31.4314846 68.5128865,31.4314846 C68.3370981,31.4314846 68.1968481,31.3724654 68.0921365,31.2525231 C67.987425,31.13385 67.9347519,30.9555231 67.9347519,30.7200808 L67.9347519,26.1800423 C67.9347519,25.9439654 67.9867904,25.7675423 68.0902327,25.6488692 C68.193675,25.5314654 68.3345596,25.4724462 68.5128865,25.4724462 C68.6880404,25.4724462 68.8301942,25.5308308 68.9393481,25.6469654 C69.0478673,25.7643692 69.1024442,25.9414269 69.1024442,26.1800423" id="Fill-1" fill="#BA1D22"></path>
                <path d="M75.47925,30.7202712 L75.47925,26.1802327 C75.47925,25.9441558 75.5331923,25.7670981 75.6404423,25.6490596 C75.7483269,25.5310212 75.8873077,25.4720019 76.0573846,25.4720019 C76.2325385,25.4720019 76.3746923,25.5303865 76.4838462,25.6471558 C76.5923654,25.763925 76.6469423,25.9416173 76.6469423,26.1802327 L76.6469423,30.7202712 C76.6469423,30.9588865 76.5923654,31.1365788 76.4838462,31.2546173 C76.3746923,31.3726558 76.2325385,31.431675 76.0573846,31.431675 C75.8892115,31.431675 75.7515,31.3720212 75.6423462,31.2527135 C75.5338269,31.1334058 75.47925,30.9557135 75.47925,30.7202712" id="Fill-3" fill="#BA1D22"></path>
                <path d="M80.4768462,26.1800423 L80.4768462,28.2006577 L82.7684423,25.8106962 C82.8788654,25.6951962 82.9727885,25.6101577 83.0502115,25.5549462 C83.127,25.5003692 83.2298077,25.4724462 83.358,25.4724462 C83.5261731,25.4724462 83.6619808,25.5213115 83.7654231,25.6196769 C83.8688654,25.7174077 83.9202692,25.8379846 83.9202692,25.9795038 C83.9202692,26.1495808 83.8326923,26.3190231 83.6569038,26.4859269 L82.2379038,27.8313115 L83.8733077,30.1736769 C83.9881731,30.3361385 84.0751154,30.4782923 84.1328654,30.6001385 C84.1906154,30.7219846 84.2185385,30.8406577 84.2185385,30.9555231 C84.2185385,31.0849846 84.1684038,31.1954077 84.0675,31.2899654 C83.9672308,31.3845231 83.8301538,31.4314846 83.6569038,31.4314846 C83.4944423,31.4314846 83.3624423,31.3972154 83.2602692,31.3274077 C83.1580962,31.2582346 83.0711538,31.1655808 83.0007115,31.0507154 C82.9296346,30.9345808 82.8668077,30.8298692 82.8122308,30.7359462 L81.4319423,28.6131577 L80.4768462,29.5289077 L80.4768462,30.7200808 C80.4768462,30.9612346 80.4216346,31.1395615 80.3118462,31.2569654 C80.2014231,31.3737346 80.0605385,31.4314846 79.8872885,31.4314846 C79.7876538,31.4314846 79.6924615,31.4048308 79.6004423,31.3527923 C79.5090577,31.3001192 79.4373462,31.2296769 79.3878462,31.1401962 C79.3516731,31.0672154 79.3288269,30.9821769 79.3212115,30.8850808 C79.3135962,30.7886192 79.3091538,30.6483692 79.3091538,30.4643308 L79.3091538,26.1800423 C79.3091538,25.9439654 79.3611923,25.7675423 79.4646346,25.6488692 C79.5680769,25.5314654 79.7089615,25.4724462 79.8872885,25.4724462 C80.0630769,25.4724462 80.2045962,25.5308308 80.31375,25.6469654 C80.4222692,25.7643692 80.4768462,25.9414269 80.4768462,26.1800423" id="Fill-5" fill="#BA1D22"></path>
                <path d="M91.453725,29.0809962 L93.1760712,29.0809962 L92.3072827,26.7024577 L91.453725,29.0809962 Z M93.7656288,30.6808615 L93.4902058,29.9574 L91.1478404,29.9574 L90.8724173,30.6967269 C90.7645327,30.9848423 90.6737827,31.1796692 90.5969942,31.2805731 C90.5208404,31.3808423 90.3964558,31.4316115 90.2238404,31.4316115 C90.0766096,31.4316115 89.9471481,31.3776692 89.8341865,31.2704192 C89.7218596,31.1625346 89.6660135,31.0413231 89.6660135,30.9048808 C89.6660135,30.8261885 89.6787058,30.7449577 89.704725,30.6611885 C89.7307442,30.5767846 89.7745327,30.46065 89.8341865,30.3108808 L91.3083981,26.5691885 C91.3509173,26.4613038 91.4010519,26.3324769 91.4600712,26.1820731 C91.5190904,26.0310346 91.5819173,25.9060154 91.6491865,25.8063808 C91.7151865,25.7067462 91.8033981,25.6267846 91.9119173,25.5645923 C92.0210712,25.5030346 92.154975,25.4719385 92.3148981,25.4719385 C92.4773596,25.4719385 92.6125327,25.5030346 92.7216865,25.5645923 C92.8308404,25.6267846 92.9184173,25.7061115 92.9850519,25.8025731 C93.0523212,25.8990346 93.1081673,26.0031115 93.1544942,26.1148038 C93.2001865,26.2264962 93.2585712,26.3749962 93.3290135,26.5609385 L94.8343212,30.2797846 C94.9529942,30.5628231 95.0113788,30.7684385 95.0113788,30.8966308 C95.0113788,31.0305346 94.9561673,31.15365 94.844475,31.2640731 C94.7327827,31.3757654 94.5988788,31.4316115 94.4414942,31.4316115 C94.349475,31.4316115 94.2707827,31.4151115 94.2060519,31.3827462 C94.1400519,31.3491115 94.0848404,31.3053231 94.0404173,31.2488423 C93.9959942,31.1923615 93.9483981,31.1054192 93.8976288,30.9892846 C93.846225,30.8725154 93.8018019,30.7697077 93.7656288,30.6808615 L93.7656288,30.6808615 Z" id="Fill-7" fill="#BA1D22"></path>
                <path d="M97.1076404,30.7202712 L97.1076404,26.1802327 C97.1076404,25.9441558 97.1615827,25.7670981 97.2688327,25.6490596 C97.3767173,25.5310212 97.5156981,25.4720019 97.685775,25.4720019 C97.8609288,25.4720019 98.0030827,25.5303865 98.1122365,25.6471558 C98.2207558,25.763925 98.2753327,25.9416173 98.2753327,26.1802327 L98.2753327,30.7202712 C98.2753327,30.9588865 98.2207558,31.1365788 98.1122365,31.2546173 C98.0030827,31.3726558 97.8609288,31.431675 97.685775,31.431675 C97.5176019,31.431675 97.3798904,31.3720212 97.2713712,31.2527135 C97.1622173,31.1334058 97.1076404,30.9557135 97.1076404,30.7202712" id="Fill-9" fill="#BA1D22"></path>
                <path d="M105.633381,26.1800423 L105.633381,30.3742154 L107.999862,30.3742154 C108.188342,30.3742154 108.333035,30.4205423 108.433938,30.5112923 C108.534842,30.6039462 108.584977,30.7188115 108.584977,30.8577923 C108.584977,30.9993115 108.535477,31.1135423 108.435842,31.2017538 C108.336208,31.2893308 108.190881,31.3331192 107.999862,31.3331192 L105.1809,31.3331192 C104.927054,31.3331192 104.744285,31.2766385 104.633227,31.1643115 C104.521535,31.0519846 104.465688,30.86985 104.465688,30.6179077 L104.465688,26.1800423 C104.465688,25.9439654 104.518362,25.7675423 104.624977,25.6488692 C104.730958,25.5314654 104.870573,25.4724462 105.043823,25.4724462 C105.219612,25.4724462 105.361131,25.5308308 105.46965,25.6469654 C105.578804,25.7643692 105.633381,25.9414269 105.633381,26.1800423" id="Fill-11" fill="#BA1D22"></path>
                <path d="M110.598802,30.7202712 L110.598802,26.1802327 C110.598802,25.9441558 110.65211,25.7670981 110.759994,25.6490596 C110.867244,25.5310212 111.006225,25.4720019 111.176302,25.4720019 C111.35209,25.4720019 111.494244,25.5303865 111.602763,25.6471558 C111.711917,25.763925 111.76586,25.9416173 111.76586,26.1802327 L111.76586,30.7202712 C111.76586,30.9588865 111.711917,31.1365788 111.602763,31.2546173 C111.494244,31.3726558 111.35209,31.431675 111.176302,31.431675 C111.008763,31.431675 110.870417,31.3720212 110.761898,31.2527135 C110.652744,31.1334058 110.598802,30.9557135 110.598802,30.7202712" id="Fill-13" fill="#BA1D22"></path>
                <path d="M115.977485,26.1719827 L118.221485,29.5684442 L118.221485,26.1402519 C118.221485,25.9181365 118.269081,25.7512327 118.365542,25.6395404 C118.460735,25.5278481 118.590196,25.4720019 118.752658,25.4720019 C118.920196,25.4720019 119.052831,25.5278481 119.149927,25.6395404 C119.246388,25.7512327 119.295254,25.9181365 119.295254,26.1402519 L119.295254,30.6733096 C119.295254,31.1790981 119.085196,31.431675 118.665715,31.431675 C118.561004,31.431675 118.467081,31.4164442 118.383312,31.3866173 C118.298908,31.3561558 118.22085,31.3085596 118.147235,31.2425596 C118.074254,31.1778288 118.005715,31.1010404 117.942888,31.0128288 C117.880062,30.9246173 117.8166,30.8357712 117.754408,30.7437519 L115.564985,27.3866365 L115.564985,30.763425 C115.564985,30.9836365 115.513581,31.1499058 115.410773,31.2622327 C115.3086,31.3751942 115.177869,31.431675 115.017946,31.431675 C114.853581,31.431675 114.720946,31.3745596 114.621312,31.2609635 C114.521677,31.1467327 114.472177,30.9804635 114.472177,30.763425 L114.472177,26.3173096 C114.472177,26.1288288 114.492485,25.9803288 114.535004,25.8730788 C114.584504,25.755675 114.667004,25.6585788 114.781869,25.5843288 C114.897369,25.5094442 115.021754,25.4720019 115.155658,25.4720019 C115.260369,25.4720019 115.350485,25.4897712 115.425369,25.5240404 C115.499619,25.557675 115.565619,25.6033673 115.621465,25.6611173 C115.677946,25.7188673 115.735696,25.7931173 115.794715,25.8851365 C115.853735,25.9765212 115.914023,26.0723481 115.977485,26.1719827" id="Fill-15" fill="#BA1D22"></path>
                <path d="M123.037581,26.1800423 L123.037581,28.2006577 L125.329177,25.8106962 C125.438965,25.6951962 125.532888,25.6101577 125.610312,25.5549462 C125.687735,25.5003692 125.790542,25.4724462 125.918735,25.4724462 C126.086908,25.4724462 126.222715,25.5213115 126.325523,25.6196769 C126.4296,25.7174077 126.481004,25.8379846 126.481004,25.9795038 C126.481004,26.1495808 126.393427,26.3190231 126.217638,26.4859269 L124.798638,27.8313115 L126.434042,30.1736769 C126.548908,30.3361385 126.63585,30.4782923 126.6936,30.6001385 C126.75135,30.7219846 126.779273,30.8406577 126.779273,30.9555231 C126.779273,31.0849846 126.729138,31.1954077 126.628235,31.2899654 C126.527331,31.3845231 126.390254,31.4314846 126.217638,31.4314846 C126.055177,31.4314846 125.922542,31.3972154 125.820369,31.3274077 C125.718831,31.2582346 125.631888,31.1655808 125.561446,31.0507154 C125.490369,30.9345808 125.427542,30.8298692 125.372965,30.7359462 L123.992677,28.6131577 L123.037581,29.5289077 L123.037581,30.7200808 C123.037581,30.9612346 122.982369,31.1395615 122.871946,31.2569654 C122.762158,31.3737346 122.621273,31.4314846 122.447388,31.4314846 C122.348388,31.4314846 122.253196,31.4048308 122.160542,31.3527923 C122.069792,31.3001192 121.998081,31.2296769 121.948581,31.1401962 C121.912408,31.0672154 121.889562,30.9821769 121.881946,30.8850808 C121.873696,30.7886192 121.869888,30.6483692 121.869888,30.4643308 L121.869888,26.1800423 C121.869888,25.9439654 121.921292,25.7675423 122.025369,25.6488692 C122.128812,25.5314654 122.269696,25.4724462 122.447388,25.4724462 C122.623812,25.4724462 122.765331,25.5308308 122.874485,25.6469654 C122.983004,25.7643692 123.037581,25.9414269 123.037581,26.1800423" id="Fill-17" fill="#BA1D22"></path>
                <path d="M62.8656346,28.5778096 L50.7571731,28.5778096 C50.4957115,28.5778096 50.28375,28.3652135 50.28375,28.1037519 C50.28375,27.8422904 50.4957115,27.6303288 50.7571731,27.6303288 L62.8656346,27.6303288 C63.1270962,27.6303288 63.3396923,27.8422904 63.3396923,28.1037519 C63.3396923,28.3652135 63.1270962,28.5778096 62.8656346,28.5778096" id="Fill-19" fill="#BA1D22"></path>
                <g transform="translate(128.192308, 27.157540)">
                    <mask id="mask-2" fill="white">
                        <use xlink:href="#path-1"></use>
                    </mask>
                    <g id="Clip-22"></g>
                    <path d="M13.0068231,1.42026923 L0.898996154,1.42026923 C0.637534615,1.42026923 0.424938462,1.20767308 0.424938462,0.946211538 C0.424938462,0.68475 0.637534615,0.472788462 0.898996154,0.472788462 L13.0068231,0.472788462 C13.2682846,0.472788462 13.4808808,0.68475 13.4808808,0.946211538 C13.4808808,1.20767308 13.2682846,1.42026923 13.0068231,1.42026923" id="Fill-21" fill="#BA1D22" mask="url(#mask-2)"></path>
                </g>
                <path d="M101.331767,15.8891827 L101.331767,14.3819712 C101.331767,14.1325673 101.424421,14.1325673 101.473287,14.1325673 L113.492902,14.1325673 C113.55446,14.1325673 113.655998,14.1325673 113.655998,14.3819712 L113.655998,15.8891827 L101.331767,15.8891827 Z M113.655998,17.6743558 L113.655998,19.1390481 C113.655998,19.4309712 113.54621,19.4309712 113.492902,19.4309712 L101.473287,19.4309712 C101.430767,19.4309712 101.331767,19.4309712 101.331767,19.1390481 L101.331767,17.6743558 L113.655998,17.6743558 Z M113.666152,12.2610865 L101.322248,12.2610865 C100.614652,12.2610865 100.120921,12.420375 99.8550173,12.7332404 C99.5897481,13.0454712 99.4609212,13.5347596 99.4609212,14.2309327 L99.4609212,19.3110288 C99.4609212,20.0059327 99.5891135,20.4996635 99.8537481,20.8182404 C100.120287,21.1387212 100.614017,21.3018173 101.322248,21.3018173 L113.666152,21.3018173 C114.373748,21.3018173 114.867479,21.1393558 115.134017,20.8182404 C115.394844,20.5034712 115.527479,19.9964135 115.527479,19.3110288 L115.527479,14.2309327 C115.527479,13.5449135 115.394844,13.0410288 115.133383,12.7332404 C114.866844,12.420375 114.373113,12.2610865 113.666152,12.2610865 L113.666152,12.2610865 Z" id="Fill-23" fill="#696866"></path>
                <path d="M111.906427,3.91671923 C111.906427,3.66795 112.0086,3.66795 112.069523,3.66795 L115.7541,3.66795 C115.815658,3.66795 115.917196,3.66795 115.917196,3.91671923 L115.917196,9.08566154 C115.917196,9.37758462 115.807408,9.37758462 115.7541,9.37758462 L112.069523,9.37758462 C112.01685,9.37758462 111.906427,9.37758462 111.906427,9.08566154 L111.906427,3.91671923 Z M117.678888,2.95464231 C117.616696,2.67096923 117.505638,2.4387 117.348888,2.26608462 L117.348888,2.26545 C117.1896,2.09029615 116.970023,1.96971923 116.695869,1.90689231 C116.436312,1.84787308 116.097427,1.81804615 115.690004,1.81804615 L112.133619,1.81804615 C111.726196,1.81804615 111.387946,1.84787308 111.127754,1.90689231 C110.854235,1.96971923 110.634023,2.09029615 110.474735,2.26545 C110.31735,2.43933462 110.209465,2.67223846 110.155523,2.95781538 C110.104119,3.22879615 110.0781,3.57275769 110.0781,3.98145 L110.0781,9.02093077 C110.0781,9.44421923 110.104119,9.79579615 110.155523,10.0655077 C110.209465,10.3523538 110.31735,10.5852577 110.474735,10.7578731 C110.632754,10.9323923 110.851696,11.0561423 111.125215,11.1265846 C111.384138,11.1938538 111.723658,11.2274885 112.133619,11.2274885 L115.690004,11.2274885 C116.099331,11.2274885 116.442658,11.1938538 116.709196,11.1272192 C116.990331,11.0567769 117.213081,10.9285846 117.372369,10.7458154 C117.528485,10.5655846 117.635735,10.3295077 117.689677,10.0445654 C117.741081,9.77231538 117.7671,9.42835385 117.7671,9.02093077 L117.7671,3.98145 C117.7671,3.57402692 117.737273,3.22943077 117.678888,2.95464231 L117.678888,2.95464231 Z" id="Fill-25" fill="#696866"></path>
                <path d="M100.586856,11.90145 C100.671894,11.83545 100.761375,11.7662769 100.855298,11.6945654 C101.295721,11.3563154 101.795798,10.9723731 102.102952,10.6652192 C102.471663,10.2971423 102.794683,9.91129615 103.064394,9.51783462 C103.301106,9.17196923 103.504183,8.79945 103.667913,8.40852692 C103.944606,8.66871923 104.551298,9.21195 105.187183,9.7812 C105.928413,10.4450077 106.769279,11.1970269 106.874625,11.3169692 C107.198913,11.6863154 107.48576,11.8855846 107.753567,11.9262 C108.02899,11.96745 108.282837,11.8735269 108.510663,11.6457 C108.711202,11.4451615 108.79751,11.2230462 108.793067,10.9247769 C108.786721,10.5668538 108.167971,9.99316154 108.04549,9.88273846 L106.035663,8.01823846 L108.212394,8.01823846 C109.074837,8.01823846 109.255702,7.50991154 109.255702,7.08281538 C109.255702,6.75789231 109.156702,6.51991154 108.959971,6.37458462 C108.774663,6.23814231 108.523356,6.16833462 108.212394,6.16833462 L104.261279,6.16833462 C104.319029,5.84658462 104.35774,5.50452692 104.377413,5.15041154 C104.396452,4.78995 104.412952,4.40283462 104.427548,3.96939231 L107.67424,3.96939231 C108.536048,3.96939231 108.717548,3.46043077 108.717548,3.03333462 C108.717548,2.61639231 108.536048,2.11948846 107.67424,2.11948846 L101.562894,2.11948846 C101.745663,1.71460385 101.806587,1.40745 101.749471,1.1847 C101.682837,0.925142308 101.484837,0.728411538 101.159913,0.597680769 C100.899721,0.500584615 100.657933,0.505026923 100.441529,0.613546154 C100.228933,0.720161538 100.014433,1.00954615 99.7853365,1.49693077 C99.6450865,1.79329615 99.5048365,2.06237308 99.3696635,2.29654615 C99.2344904,2.53135385 99.0980481,2.75410385 98.9635096,2.95845 C98.8302404,3.16216154 98.6849135,3.36143077 98.5300673,3.55181538 C98.3676058,3.75108462 98.187375,3.96368077 97.9944519,4.18325769 C97.6492212,4.57418077 97.4505865,4.87118077 97.3877596,5.09075769 C97.3198558,5.33000769 97.3922019,5.58321923 97.6041635,5.84277692 L97.6174904,5.85737308 C97.8751442,6.08329615 98.1264519,6.17150769 98.3650673,6.12073846 C98.5909904,6.07187308 98.8429327,5.90687308 99.1342212,5.61495 C99.3804519,5.36935385 99.6222404,5.09773846 99.853875,4.80835385 C100.070913,4.53737308 100.277798,4.25560385 100.470721,3.96939231 L102.623971,3.96939231 C102.61826,4.81152692 102.553529,5.55021923 102.430413,6.16833462 L98.038875,6.16833462 C97.3845865,6.16833462 97.0387212,6.49198846 97.0387212,7.10439231 C97.0387212,7.52133462 97.2126058,8.01823846 98.038875,8.01823846 L101.795163,8.01823846 C101.452471,8.66427692 101.04251,9.21639231 100.574163,9.66062308 C99.9332019,10.2711231 98.6233558,10.9672962 97.9011635,11.3283923 L97.8891058,11.3347385 C97.6409712,11.4946615 97.444875,11.6399885 97.3039904,11.7656423 C97.156125,11.8989115 97.0520481,12.0321808 96.9949327,12.1616423 C96.9346442,12.2987192 96.9181442,12.4313538 96.9447981,12.5563731 C96.9682788,12.6667962 97.0114327,12.7848346 97.0729904,12.9073154 L97.0742596,12.9092192 C97.2379904,13.22145 97.4493173,13.3832769 97.7012596,13.3915269 C97.7076058,13.3921615 97.7145865,13.3921615 97.7202981,13.3921615 C97.9544712,13.3921615 98.311125,13.2493731 98.8137404,12.9530077 C99.0802788,12.7797577 99.3569712,12.6306231 99.6241442,12.4859308 C99.9763558,12.2968154 100.308894,12.1178538 100.586856,11.90145" id="Fill-27" fill="#696866"></path>
                <mask id="mask-4" fill="white">
                    <use xlink:href="#path-3"></use>
                </mask>
                <g id="Clip-30"></g>
                <path d="M122.828538,6.37452115 L125.872788,6.37452115 L125.872788,3.42165577 L122.828538,3.42165577 L122.828538,6.37452115 Z M122.828538,11.1988673 L125.872788,11.1988673 L125.872788,8.13811731 L122.828538,8.13811731 L122.828538,11.1988673 Z M125.872788,12.9624635 L125.872788,15.3530596 C125.563731,15.4812519 124.754596,15.7509635 124.034308,15.9914827 C123.554538,16.1520404 123.095712,16.3049827 122.828538,16.4014442 L122.828538,12.9624635 L125.872788,12.9624635 Z M128.755212,16.169175 C129.150577,15.9756173 129.393635,15.7389058 129.477404,15.4641173 C129.549115,15.228675 129.504058,14.9684827 129.3435,14.6905212 C129.1785,14.4112904 128.968442,14.2646942 128.719038,14.2558096 C128.489942,14.2481942 128.218327,14.3262519 127.887692,14.4995019 C127.833115,14.5344058 127.777904,14.5648673 127.722692,14.5921558 L127.722692,3.42165577 L128.121865,3.42165577 C128.706346,3.42165577 129.014769,3.11323269 129.014769,2.52875192 C129.014769,2.20636731 128.9475,1.98234808 128.807885,1.84273269 C128.668269,1.70375192 128.44425,1.63584808 128.121865,1.63584808 L120.644192,1.63584808 C120.291346,1.63584808 120.052096,1.70819423 119.913115,1.85605962 C119.775404,2.00202115 119.708135,2.22921346 119.708135,2.55032885 C119.708135,2.94759808 119.870596,3.42165577 120.644192,3.42165577 L120.978635,3.42165577 L120.978635,17.0620788 C120.894231,17.0861942 120.814904,17.1122135 120.741923,17.1401365 C120.652442,17.1744058 120.55725,17.2061365 120.457615,17.2346942 C120.066692,17.3590788 119.809673,17.5475596 119.692904,17.7950596 C119.590096,18.0140019 119.597712,18.2767327 119.71575,18.5711942 C119.830615,18.883425 120.007038,19.0674635 120.241846,19.1195019 C120.460788,19.1677327 120.760962,19.1169635 121.156962,18.9646558 C121.925481,18.6943096 122.66925,18.4182519 123.368596,18.1453673 C123.680192,18.0222519 124.10475,17.876925 124.554058,17.7227135 C125.021769,17.5621558 125.504077,17.3971558 125.872788,17.2518288 L125.872788,20.3405019 C125.872788,20.6616173 125.955923,20.8957904 126.119019,21.0328673 C126.276404,21.1655019 126.501058,21.2327712 126.787269,21.2327712 C127.055077,21.2327712 127.277192,21.1712135 127.447904,21.0493673 C127.630038,20.9192712 127.722692,20.6806558 127.722692,20.3405019 L127.722692,16.6775019 C127.885788,16.6013481 128.046981,16.5251942 128.205635,16.449675 C128.385865,16.3627327 128.572442,16.268175 128.755212,16.169175 L128.755212,16.169175 Z" id="Fill-29" fill="#696866" mask="url(#mask-4)"></path>
                <path d="M138.91661,17.8525558 C138.490148,17.3416904 138.090975,16.7984596 137.729244,16.2387288 C137.366244,15.675825 137.016571,15.0627865 136.691013,14.4180173 C136.387033,13.8164019 136.084321,13.1532288 135.791763,12.4456327 L140.075417,12.4456327 C140.393994,12.4456327 140.622456,12.3834404 140.775398,12.2571519 C140.934052,12.1245173 141.011475,11.8871712 141.011475,11.5317865 C141.011475,11.1897288 140.934052,10.9599981 140.775398,10.8273635 C140.622456,10.7004404 140.393994,10.6388827 140.075417,10.6388827 L135.291052,10.6388827 C135.329129,10.0956519 135.355148,9.47372885 135.368475,8.78770962 C135.382437,8.07503654 135.395763,7.20497885 135.41036,6.17817115 L139.622937,6.17817115 C139.942783,6.17817115 140.16934,6.11597885 140.314667,5.98715192 C140.464437,5.85451731 140.537417,5.61844038 140.537417,5.264325 C140.537417,4.94130577 140.44984,4.70776731 140.27786,4.56942115 C140.113494,4.43805577 139.871071,4.37142115 139.55884,4.37142115 L137.876475,4.37142115 C138.089706,4.03317115 138.287706,3.696825 138.466033,3.37126731 C138.67609,2.98669038 138.869648,2.60401731 139.04036,2.23340192 C139.223763,1.83613269 139.298013,1.53278654 139.265648,1.30622885 C139.23011,1.06444038 139.056225,0.867709615 138.75161,0.723651923 C138.51934,0.600536538 138.297225,0.573882692 138.092244,0.644325 C137.815552,0.739517308 137.583283,1.00224808 137.382744,1.44901731 C137.183475,1.91926731 136.95311,2.39776731 136.698629,2.871825 C136.452398,3.33001731 136.133821,3.83453654 135.751148,4.37142115 L133.533802,4.37142115 C133.17461,3.71142115 132.848417,3.13709423 132.562206,2.66176731 C132.26711,2.17311346 131.951071,1.67874808 131.621071,1.19072885 C131.40086,0.876594231 131.191437,0.698901923 130.982013,0.648767308 C130.770052,0.598632692 130.52636,0.661459615 130.249033,0.841055769 C130.015494,1.01620962 129.882225,1.22055577 129.852398,1.44901731 C129.81686,1.71936346 129.929187,2.02017115 130.183667,2.34255577 C130.438783,2.66811346 130.69009,3.01778654 130.932513,3.38015192 C131.138129,3.68920962 131.347552,4.02174808 131.55634,4.37142115 L130.060552,4.37142115 C129.731187,4.37142115 129.490667,4.42790192 129.325667,4.54340192 C129.146706,4.66842115 129.060398,4.90449808 129.060398,5.264325 C129.060398,5.62161346 129.142263,5.85959423 129.309167,5.99159423 C129.468456,6.11724808 129.714052,6.17817115 130.060552,6.17817115 L133.602975,6.17817115 C133.588379,7.20053654 133.571244,8.06424808 133.550937,8.81436346 C133.531263,9.54353654 133.501437,10.156575 133.462725,10.6388827 L129.177167,10.6388827 C128.844629,10.6388827 128.608552,10.7004404 128.456879,10.8273635 C128.29759,10.9599981 128.220802,11.1897288 128.220802,11.5317865 C128.220802,11.8871712 128.29759,12.1245173 128.456879,12.2571519 C128.608552,12.3834404 128.844629,12.4456327 129.177167,12.4456327 L133.168898,12.4456327 C133.01659,13.1722673 132.821763,13.8500365 132.589494,14.4618058 C132.342629,15.1116519 132.030398,15.7272288 131.66359,16.2920365 C131.296783,16.8562096 130.852552,17.3969019 130.344225,17.8982481 C129.833994,18.4008635 129.22984,18.9009404 128.550802,19.3819788 C128.147187,19.6618442 127.926975,19.9290173 127.877475,20.2006327 C127.827975,20.4722481 127.916187,20.7470365 128.139571,21.0173827 C128.32234,21.2388635 128.515263,21.3505558 128.71834,21.3505558 C128.774187,21.3505558 128.830667,21.3416712 128.888417,21.3251712 C129.118783,21.2553635 129.41134,21.0916327 129.785129,20.8225558 C130.966783,19.957575 131.989148,18.9498058 132.824937,17.8259019 C133.599802,16.7832288 134.202687,15.5971327 134.619629,14.2949019 C134.855706,14.867325 135.100667,15.403575 135.35134,15.8922288 C135.645167,16.4659212 135.969456,17.0237481 136.315956,17.5504788 C136.661821,18.0772096 137.048937,18.5982288 137.465244,19.1014788 C137.879013,19.6009212 138.351802,20.1320942 138.872821,20.6816712 C139.22059,21.0294404 139.511879,21.2325173 139.763821,21.3035942 C140.039244,21.3816519 140.296898,21.285825 140.521552,21.0288058 C140.726533,20.8377865 140.831879,20.6239212 140.835052,20.3922865 C140.840763,20.0857673 140.663706,19.7500558 140.310225,19.3972096 C139.813321,18.8863442 139.34434,18.3672288 138.91661,17.8525558" id="Fill-31" fill="#696866" mask="url(#mask-4)"></path>
                <path d="M90.6139385,10.7559058 L86.2725346,10.7559058 L86.2725346,9.59075192 L90.8404962,9.59075192 L90.8404962,10.377675 C90.8404962,10.7559058 90.6812077,10.7559058 90.6139385,10.7559058 L90.6139385,10.7559058 Z M86.2725346,7.71927115 L86.2725346,6.68357885 L90.6139385,6.68357885 C90.6812077,6.68357885 90.8404962,6.68357885 90.8404962,7.08275192 L90.8404962,7.71927115 L86.2725346,7.71927115 Z M93.5845731,18.6892327 C91.8964962,18.0489058 90.4781308,17.2626173 89.3662846,16.350675 C89.6328231,16.2250212 89.9145923,16.0796942 90.20715,15.9191365 C90.5619,15.7230404 90.9052269,15.5186942 91.2263423,15.3118096 C91.5525346,15.1017519 91.8584192,14.8942327 92.1351115,14.6943288 C92.4130731,14.4956942 92.6574,14.3135596 92.8611115,14.1530019 C93.2196692,13.8712327 93.4138615,13.5818481 93.4386115,13.2918288 C93.4582846,13.050675 93.3637269,12.8120596 93.1549385,12.5810596 C92.9436115,12.3538673 92.7164192,12.2478865 92.4784385,12.2637519 C92.2493423,12.2802519 91.9669385,12.4376365 91.6166308,12.7422519 C91.1635154,13.1103288 90.6463038,13.4733288 90.0783231,13.8210981 C89.5097077,14.1695019 88.8966692,14.5121942 88.2487269,14.8428288 C88.1763808,14.8866173 88.1110154,14.9265981 88.0532654,14.9627712 C88.0253423,14.9799058 87.9974192,14.9970404 87.9701308,15.0122712 C87.6515538,14.6486365 87.3532846,14.2596173 87.0823038,13.8553673 C86.8049769,13.4435019 86.5397077,13.0018096 86.2928423,12.5410788 L90.5060538,12.5410788 C90.9712269,12.5410788 91.3481885,12.5150596 91.6255154,12.4636558 C91.92315,12.4090788 92.1566885,12.2878673 92.3178808,12.1025596 C92.4759,11.920425 92.5787077,11.6653096 92.6250346,11.3422904 C92.6681885,11.0364058 92.6904,10.6181942 92.6904,10.0978096 L92.6904,9.59075192 L93.8035154,9.59075192 C94.1170154,9.59075192 94.3664192,9.51650192 94.5447462,9.37054038 C94.7306885,9.21823269 94.8252462,8.97073269 94.8252462,8.63375192 C94.8252462,8.21680962 94.6475538,7.71927115 93.8035154,7.71927115 L92.6904,7.71927115 L92.6904,7.36261731 C92.6904,6.84286731 92.6681885,6.417675 92.6250346,6.09782885 C92.5793423,5.75957885 92.4752654,5.49938654 92.3159769,5.32359808 C92.1554192,5.14780962 91.92315,5.03040577 91.6255154,4.97519423 C91.3462846,4.92379038 90.9699577,4.89777115 90.5060538,4.89777115 L86.2725346,4.89777115 L86.2725346,4.17494423 C86.2725346,4.13369423 86.2693615,4.09371346 86.26365,4.05563654 L93.5426885,4.05563654 C93.8809385,4.05563654 94.1170154,3.98011731 94.2629769,3.82527115 C94.4064,3.67359808 94.4787462,3.44386731 94.4787462,3.14115577 C94.4787462,2.82448269 94.4171885,2.59284808 94.2915346,2.432925 C94.1589,2.26602115 93.9139385,2.18415577 93.5426885,2.18415577 L85.7661115,2.18415577 C85.7343808,2.06738654 85.6982077,1.97727115 85.6455346,1.84590577 L85.6334769,1.81544423 C85.5598615,1.632675 85.4862462,1.46640577 85.4145346,1.32234808 C85.2127269,0.920001923 84.9715731,0.675675 84.69615,0.594444231 C84.4283423,0.515751923 84.1637077,0.575405769 83.8641692,0.782925 C83.5551115,0.996790385 83.4135923,1.18146346 83.4053423,1.38200192 C83.3970923,1.55969423 83.4891115,1.84082885 83.6522077,2.135925 C83.6591885,2.15179038 83.6674385,2.16829038 83.6750538,2.18415577 L77.5402269,2.18415577 C77.1607269,2.18415577 76.8396115,2.21461731 76.5870346,2.27363654 C76.3211308,2.33646346 76.1091692,2.45323269 75.9568615,2.62140577 C75.8070923,2.78577115 75.7004769,3.00725192 75.6382846,3.27696346 C75.5799,3.53525192 75.5494385,3.85954038 75.5494385,4.239675 L75.5494385,9.62375192 C75.5494385,10.9500981 75.5246885,12.1254058 75.4745538,13.1179442 C75.4237846,14.1111173 75.3444577,14.9843481 75.2378423,15.7135212 C75.1318615,16.4433288 74.9998615,17.0792135 74.8431115,17.6027712 C74.6876308,18.1263288 74.5016885,18.6054635 74.2909962,19.0262135 C74.0492077,19.510425 73.9432269,19.8721558 73.9673423,20.1342519 C73.9927269,20.4109442 74.1539192,20.6336942 74.4464769,20.7967904 C74.7428423,20.9611558 75.0354,20.9605212 75.3171692,20.7948865 C75.5862462,20.6368673 75.8274,20.294175 76.0558615,19.7471365 C76.2862269,19.1696365 76.4905731,18.5489827 76.6631885,17.9035788 C76.8358038,17.2556365 76.9785923,16.5296365 77.0858423,15.7458865 C77.1937269,14.9659442 77.2736885,14.0717712 77.3238231,13.0868481 C77.3739577,12.1044635 77.3993423,10.9761173 77.3993423,9.73163654 L77.3993423,4.17494423 C77.3993423,4.05563654 77.4310731,4.05563654 77.4545538,4.05563654 L84.4042269,4.05563654 C84.4023231,4.08863654 84.4016885,4.12798269 84.4016885,4.17494423 L84.4016885,4.89777115 L79.2422654,4.89777115 C78.9281308,4.89777115 78.7022077,4.94663654 78.5524385,5.04690577 C78.3861692,5.15732885 78.3062077,5.39340577 78.3062077,5.76909808 C78.3062077,6.17334808 78.3861692,6.42402115 78.5524385,6.53444423 C78.7022077,6.63407885 78.9281308,6.68357885 79.2422654,6.68357885 L84.4016885,6.68357885 L84.4016885,7.74084808 L78.4451885,7.74084808 C77.8473808,7.74084808 77.5313423,8.07909808 77.5313423,8.719425 C77.5313423,9.04054038 77.6094,9.27280962 77.7642462,9.40988654 C77.91465,9.544425 78.1437462,9.61232885 78.4451885,9.61232885 L84.4016885,9.61232885 L84.4016885,10.7559058 L79.1991115,10.7559058 C78.8868808,10.7559058 78.6514385,10.8079442 78.4800923,10.913925 C78.2903423,11.0313288 78.1989577,11.2712135 78.1989577,11.6488096 C78.1989577,12.0422712 78.2916115,12.2865981 78.4839,12.3963865 C78.6539769,12.4941173 78.88815,12.5410788 79.1991115,12.5410788 L84.4016885,12.5410788 L84.4016885,18.5623096 C84.4016885,18.9405404 84.3363231,19.1163288 84.2817462,19.1956558 C84.2068615,19.3048096 84.0888231,19.3689058 83.9155731,19.3942904 C83.8229192,19.4120596 83.7334385,19.4253865 83.6464962,19.4368096 C83.1902077,19.4495019 82.8462462,19.4399827 82.6476115,19.4095212 C82.2192462,19.3562135 81.8441885,19.3048096 81.8441885,19.3048096 L81.8276885,19.3035404 C81.4919769,19.3035404 81.2444769,19.3892135 81.0934385,19.5580212 C80.9455731,19.7236558 80.8700538,19.9521173 80.8706885,20.2307135 C80.8326115,20.8570788 81.4818231,21.1344058 81.8308615,21.193425 C81.8530731,21.1972327 82.3772654,21.2854442 82.6260346,21.2994058 C82.76565,21.3082904 82.9788808,21.3203481 83.2092462,21.3203481 C83.3577462,21.3203481 83.5138615,21.3152712 83.6636308,21.300675 C84.4150154,21.2702135 85.0318615,21.0684058 85.4964,20.7003288 C86.0110731,20.2903673 86.2725346,19.6075212 86.2725346,18.6701942 L86.2725346,15.7719058 C87.0105923,16.7371558 87.8920731,17.5938865 88.8973038,18.3230596 C89.9977269,19.1220404 91.3285154,19.8397904 92.8547654,20.459175 C93.3649962,20.6540019 93.7483038,20.7377712 94.0262654,20.7136558 C94.3308808,20.6889058 94.5529962,20.5080404 94.6856308,20.1767712 C94.7992269,19.8854827 94.7852654,19.6119635 94.6462846,19.3657327 C94.5085731,19.1233096 94.1608038,18.9018288 93.5845731,18.6892327 L93.5845731,18.6892327 Z" id="Fill-32" fill="#696866" mask="url(#mask-4)"></path>
                <path d="M82.2034442,18.0781615 C82.5664442,17.8357385 82.9770404,17.5527 83.4244442,17.2360269 C83.9130981,16.88445 84.1745596,16.5887192 84.2246942,16.3336038 C84.2741942,16.0778538 84.2081942,15.8316231 84.0273288,15.6012577 C83.8020404,15.3283731 83.5589827,15.1976423 83.3045019,15.2147769 C83.1122135,15.2274692 82.9027904,15.3131423 82.6673481,15.4730654 L82.6660788,15.4660846 L82.6533865,15.4762385 C82.5639058,15.2572962 82.4039827,15.0535846 82.1672712,14.8600269 C81.7953865,14.4824308 81.1493481,13.9906038 80.3922519,13.5095654 C80.0330596,13.2811038 79.6085019,13.0685077 79.1591942,12.8438538 L79.141425,12.8349692 C78.8533096,12.6985269 78.5855019,12.6306231 78.3443481,12.6407769 C78.0778096,12.6496615 77.8740981,12.7829308 77.7382904,13.0367769 C77.5364827,13.4175462 77.4596942,13.9601423 78.2383673,14.3789885 C78.7365404,14.6499692 79.157925,14.8949308 79.4910981,15.1075269 C79.8045981,15.3074308 80.6917904,15.9528346 80.9875212,16.2942577 C81.0624058,16.3812 81.1480788,16.45545 81.2394635,16.5195462 C80.9532519,16.7080269 80.6645019,16.8869885 80.3795596,17.04945 C79.6218288,17.4816231 78.8057135,17.8446231 77.9559635,18.1276615 C77.4032135,18.3117 77.0681365,18.5490462 76.9329635,18.8530269 C76.8390404,19.0643538 76.847925,19.3010654 76.9577135,19.5542769 C77.1055788,19.9134692 77.3207135,20.1044885 77.5980404,20.1222577 C77.6158096,20.1235269 77.6335788,20.1241615 77.6519827,20.1241615 C77.9007519,20.1241615 78.2599442,20.0283346 78.7466942,19.8347769 C79.2194827,19.6482 79.6491173,19.4660654 80.0229058,19.29345 C80.3960596,19.1214692 80.7641365,18.9355269 81.1182519,18.7400654 C81.4710981,18.5458731 81.8360019,18.3231231 82.2034442,18.0781615" id="Fill-33" fill="#696866" mask="url(#mask-4)"></path>
                <path d="M68.4715096,11.3641846 L65.4551827,11.3660885 C65.4989712,11.3324538 65.5427596,11.2950115 65.5852788,11.2518577 C66.0085673,10.8292038 66.0028558,10.3767231 65.5700481,9.94391538 L63.3660288,7.73989615 C63.2644904,7.63835769 63.1635865,7.56156923 63.0639519,7.50762692 L67.8724327,7.50381923 L67.8743365,7.50381923 C68.223375,7.50381923 68.3547404,7.57743462 68.4036058,7.63899231 C68.4473942,7.69547308 68.5235481,7.86935769 68.5362404,8.40243462 L68.4715096,11.3641846 Z M68.4473942,17.1144346 L59.4358558,17.1214154 L59.4358558,17.1214154 C59.3895288,17.1214154 59.3863558,17.1099923 59.3812788,17.0960308 C59.3685865,17.0579538 59.3565288,16.9798962 59.3698558,16.8180692 C59.4060288,15.6408577 59.4479135,14.41605 59.4942404,13.1760115 L62.5207212,13.1734731 C62.4927981,13.1969538 62.4655096,13.2223385 62.4382212,13.2489923 C62.0155673,13.6722808 62.0206442,14.1241269 62.4534519,14.5575692 L64.6574712,16.7615885 C64.8732404,16.9767231 65.0871058,17.0858769 65.2933558,17.0858769 C65.3041442,17.0858769 65.3149327,17.0858769 65.3257212,17.0852423 C65.5376827,17.0731846 65.7426635,16.9691077 65.9349519,16.7768192 C66.3576058,16.3535308 66.3525288,15.90105 65.9197212,15.4688769 L63.7157019,13.2648577 C63.6827019,13.2312231 63.6490673,13.2013962 63.6160673,13.1728385 L68.4861058,13.1690308 L68.4473942,17.1144346 Z M59.5919712,9.73068462 C59.6084712,9.14683846 59.6306827,8.55474231 59.659875,7.96962692 C59.6687596,7.65168462 59.833125,7.51016538 60.1935865,7.51016538 L62.3766635,7.50826154 C62.2782981,7.55966538 62.1818365,7.63137692 62.0885481,7.72466538 C61.6658942,8.14731923 61.6709712,8.5998 62.1037788,9.03260769 L64.3077981,11.2366269 C64.3572981,11.2861269 64.4067981,11.3292808 64.4556635,11.3673577 L59.5297788,11.3711654 C59.5564327,10.8057231 59.577375,10.2536077 59.5919712,9.73068462 L59.5919712,9.73068462 Z M72.0792981,17.9775115 C72.0443942,17.6957423 71.9453942,17.4787038 71.7854712,17.3327423 C71.6242788,17.1861462 71.3805865,17.1112615 71.061375,17.1112615 L71.0594712,17.1112615 L70.2998365,17.1125308 L70.3379135,13.1671269 L71.2397019,13.1658577 C71.6020673,13.1658577 71.8432212,13.0719346 71.9568173,12.8866269 C72.0621635,12.7152808 72.0996058,12.5007808 72.067875,12.2488385 C72.0361442,11.9880115 71.9561827,11.7754154 71.8311635,11.6173962 C71.6940865,11.4447808 71.4459519,11.3616462 71.0708942,11.3616462 L71.0683558,11.3616462 L70.3011058,11.3629154 L70.3537788,7.76781923 L70.3537788,7.76401154 C70.3366442,7.01135769 70.1507019,6.47891538 69.8003942,6.18128077 C69.4551635,5.88999231 68.899875,5.74149231 68.1484904,5.74149231 L68.1434135,5.74149231 L59.6992212,5.74783846 C59.0252596,5.74847308 58.5467596,5.90903077 58.2757788,6.22506923 C58.0067019,6.53920385 57.8620096,7.05895385 57.8328173,7.81351154 C57.8061635,8.41385769 57.7858558,9.0288 57.7731635,9.64120385 C57.7611058,10.2123577 57.7496827,10.7892231 57.7395288,11.3730692 L56.5090096,11.3743385 C56.1434712,11.3743385 55.9086635,11.4612808 55.7925288,11.6408769 C55.6744904,11.8223769 55.658625,12.0559154 55.658625,12.2812038 C55.658625,12.5128385 55.6732212,12.7355885 55.8502788,12.9202615 C56.0324135,13.1106462 56.4220673,13.17855 56.7012981,13.17855 L56.7025673,13.17855 L57.6849519,13.1772808 C57.6608365,13.7528769 57.6291058,14.3348192 57.5903942,14.9091462 C57.5491442,15.5323385 57.5015481,16.1631462 57.4501442,16.7831654 C57.3752596,17.5389923 57.4431635,18.0669923 57.6576635,18.3976269 C57.8772404,18.7346077 58.3176635,18.9053192 58.9675096,18.9053192 L58.9706827,18.9053192 L68.2443173,18.8983385 C67.9949135,19.2073962 67.4345481,19.36605 66.9598558,19.3838192 L64.989375,19.3838192 C64.6530288,19.3838192 64.4055288,19.4694923 64.2544904,19.6389346 C64.106625,19.8039346 64.0317404,20.0330308 64.0317404,20.3186077 C64.0317404,20.9443385 64.370625,21.2756077 65.0115865,21.2756077 L66.3982212,21.2756077 C66.6165288,21.2756077 67.1369135,21.2648192 67.5443365,21.2254731 C69.0915288,21.1499538 70.1069135,20.2824346 70.2801635,18.8964346 L71.2282788,18.8951654 C71.5716058,18.8945308 71.8108558,18.8075885 71.9409519,18.6356077 C72.0659712,18.4693385 72.1122981,18.2472231 72.0792981,17.9775115 L72.0792981,17.9775115 Z" id="Fill-34" fill="#696866" mask="url(#mask-4)"></path>
                <path d="M55.0473,7.41979615 C55.0308,7.67554615 55.1323385,7.88243077 55.3500115,8.03600769 C55.5219923,8.19148846 55.7212615,8.27018077 55.9446462,8.27018077 C55.9744731,8.27018077 56.0055692,8.26827692 56.0373,8.26573846 C56.3019346,8.24035385 56.5741846,8.05441154 56.8724538,7.69331538 C57.2748,7.17546923 57.6568385,6.63287308 58.00905,6.07948846 C58.3479346,5.54768077 58.6614346,4.98350769 58.9425692,4.40029615 L65.9829923,4.40029615 L66.2178,4.40029615 L70.1416269,4.40029615 C70.4621077,4.40029615 70.6981846,4.31843077 70.8428769,4.15596923 C70.9837615,3.99795 71.0554731,3.78027692 71.0554731,3.50739231 C71.0554731,2.90958462 70.7318192,2.59354615 70.1194154,2.59354615 L66.2178,2.59354615 L65.9829923,2.59354615 L59.7301269,2.59354615 C59.7650308,2.5047 59.7980308,2.41712308 59.8297615,2.33081538 C59.8798962,2.19500769 59.9338385,2.04777692 59.9928577,1.88468077 C60.1172423,1.49502692 60.1343769,1.20056538 60.0429923,0.984796154 C59.9509731,0.767757692 59.7643962,0.608469231 59.4800885,0.5082 C59.1723,0.426969231 58.8987808,0.473930769 58.6696846,0.645911538 C58.4482038,0.811546154 58.3035115,1.01018077 58.2387808,1.23737308 C57.9836654,2.19945 57.6105115,3.15137308 57.1282038,4.06648846 C56.6458962,4.98160385 56.1071077,5.8047 55.5270692,6.51229615 C55.2199154,6.87973846 55.0631654,7.17673846 55.0473,7.41979615" id="Fill-35" fill="#696866" mask="url(#mask-4)"></path>
                <path d="M51.2997058,3.13214423 L54.485475,5.35075962 C54.6479365,5.46499038 54.8395904,5.52527885 55.0375904,5.52527885 C55.3536288,5.52527885 55.6499942,5.37106731 55.830225,5.11277885 L55.8613212,5.06835577 C56.0091865,4.85766346 56.0656673,4.60127885 56.019975,4.34679808 C55.9755519,4.09231731 55.8346673,3.87083654 55.6233404,3.72297115 L52.4382058,1.50499038 C52.0015904,1.19974038 51.3987058,1.30635577 51.0934558,1.74233654 L51.061725,1.78739423 C50.7571096,2.22400962 50.863725,2.82752885 51.2997058,3.13214423" id="Fill-36" fill="#696866" mask="url(#mask-4)"></path>
                <path d="M55.7869442,10.0655077 C55.7418865,9.81102692 55.6016365,9.58954615 55.3903096,9.44231538 L52.2045404,7.2237 C51.767925,6.91845 51.1650404,7.02506538 50.8597904,7.46168077 L50.8286942,7.50673846 C50.5234442,7.94335385 50.6300596,8.54623846 51.066675,8.85148846 L54.2518096,11.0701038 C54.4142712,11.1837 54.605925,11.2439885 54.8045596,11.2439885 C55.1199635,11.2439885 55.4169635,11.0897769 55.5965596,10.8321231 L55.6282904,10.7870654 C55.7755212,10.5763731 55.8320019,10.3199885 55.7869442,10.0655077" id="Fill-37" fill="#696866" mask="url(#mask-4)"></path>
                <path d="M55.1179327,14.3389442 L55.0709712,14.3097519 C54.6197596,14.0267135 54.0225865,14.1637904 53.7382788,14.6162712 L50.6242212,19.6944635 C50.4877788,19.9121365 50.4439904,20.1710596 50.5017404,20.4230019 C50.5594904,20.6749442 50.7111635,20.8894442 50.9288365,21.0258865 L50.9757981,21.0550788 C51.129375,21.1509058 51.3064327,21.2023096 51.4872981,21.2023096 C51.8230096,21.2023096 52.1295288,21.0322327 52.3084904,20.7472904 L55.4225481,15.6703673 C55.5589904,15.4520596 55.6027788,15.1931365 55.5450288,14.9411942 C55.4872788,14.6892519 55.3356058,14.4753865 55.1179327,14.3389442" id="Fill-38" fill="#696866" mask="url(#mask-4)"></path>
                <path d="M20.6600308,9.03298846 C21.0795115,9.77421923 21.1677231,10.7318538 20.6689154,11.6114308 L12.3065885,26.3402192 C11.9010692,27.0706615 11.7011654,27.4076423 11.7887423,28.0327385 C11.8985308,28.8164885 11.8661654,28.9205654 11.2239346,30.05145 L9.96993462,32.2656231 C9.68689615,32.7587192 9.29470385,32.8570846 9.03768462,32.8570846 C9.03768462,32.8570846 1.99535769,32.8488346 1.0923,32.8488346 C0.192415385,32.8488346 -0.283546154,32.0022577 0.180992308,31.1785269 C1.60126154,28.6597385 12.2812038,9.89035385 12.5693192,9.37758462 C13.1944154,8.26764231 12.7539923,7.91860385 13.2039346,7.12914231 C13.2039346,7.12914231 15.5761269,2.95210385 15.8306077,2.50152692 C16.0539923,2.10679615 16.6651269,1.99827692 16.95705,2.51295 L20.6600308,9.03298846 Z" id="Fill-39" fill="#BA1D22" mask="url(#mask-4)"></path>
                <path d="M22.8882923,14.2710404 L31.1674846,28.8595788 C31.4245038,29.2416173 32.1714462,29.3126942 32.3929269,29.7023481 L33.6786577,31.9685596 C33.9153692,32.3855019 33.5917154,32.8570212 33.2084077,32.8570212 L25.8849462,32.8487712 C24.7350231,32.8487712 22.9352538,32.1132519 22.0309269,30.5210019 L17.0904462,21.8178865 C16.6950808,21.1210788 16.7890038,20.3957135 17.1151962,19.8213865 L20.2501962,14.2989635 C20.8683115,13.2099635 22.3330038,13.298175 22.8882923,14.2710404" id="Fill-40" fill="#BA1D22" mask="url(#mask-4)"></path>
                <path d="M45.3991788,31.2457962 C45.8046981,31.9597385 45.3376212,32.8570846 44.5443519,32.8570846 L37.5997558,32.8685077 C36.3216404,32.8932577 34.8588519,32.0086038 34.2775442,30.9856038 L17.5884288,1.58704615 C17.1936981,0.892142308 17.6563327,-0.000126923077 18.5048135,-0.000126923077 L26.7954288,-0.000126923077 C27.4224288,-0.000126923077 27.8844288,0.393334615 28.088775,0.753161538 L30.1170058,4.32668077 C30.6151788,5.21641154 30.4673135,5.92083462 30.6653135,6.89243077 C30.9077365,8.08360385 31.4807942,9.24685385 31.8253904,9.84846923 L37.6860635,20.1711231 C38.4063519,21.4409885 38.6621019,21.6510462 38.8328135,21.8039885 C39.0980827,22.0419692 39.5861019,22.2196615 39.8951596,22.4576423 C40.3076596,22.7755846 40.7188904,23.0008731 41.1999288,23.8487192 L45.3991788,31.2457962 Z" id="Fill-41" fill="#696866" mask="url(#mask-4)"></path>
            </g>
        </g>
    </g>
</svg>
